<svg viewBox="0 0 136 32" fill="none" xmlns="http://www.w3.org/2000/svg">
<path d="M0 14.4312H5.57093C8.43416 14.4312 10.1662 16.1343 10.1662 18.6078C10.1662 21.1025 8.44123 22.8057 5.55679 22.8057H1.96538V28.1626H0V14.4312ZM5.2033 21.1025C7.10505 21.1025 8.08774 20.0425 8.08774 18.6078C8.08774 17.1732 7.10505 16.2333 5.2033 16.2333H1.96538V21.0955H5.2033V21.1025Z" fill="black"/>
<path d="M13.4257 22.9258C14.5427 22.3181 16.0344 21.9435 17.8584 21.8092V21.5124C17.8584 20.3534 17.208 19.7103 15.8153 19.7103C14.5003 19.7103 13.6378 20.2969 13.2631 21.4771L11.5381 20.8905C11.8916 19.4983 13.3409 18.1626 15.8153 18.1626C18.3886 18.1626 19.7036 19.4347 19.7036 21.576V26.0283C19.7036 26.4806 19.8238 26.5796 20.2692 26.5796H21.2731V28.1697H20.4671C18.9966 28.1697 18.6007 27.682 18.6007 26.1273H17.8584C17.4837 27.4842 16.4657 28.4453 14.8326 28.4453C12.9308 28.4453 11.729 27.3852 11.729 25.6608C11.736 24.417 12.3087 23.5124 13.4257 22.9258ZM17.8655 23.1379C15.278 23.3923 13.6449 24.0778 13.6449 25.4912C13.6449 26.3746 14.2175 26.9259 15.3699 26.9259C16.6636 26.9259 17.8655 26.0001 17.8655 24.1414V23.1379Z" fill="black"/>
<path d="M23.436 28.3181V27.6326C22.8633 27.3993 22.4745 26.9824 22.4745 26.417C22.4745 25.6891 22.9835 25.0813 23.9238 24.6926V24.0071C23.238 23.4559 22.8633 22.735 22.8633 21.576C22.8633 19.7103 24.4116 18.1626 26.5891 18.1626C28.4555 18.1626 29.4523 19.0248 29.8694 20.0495H30.5552C30.6329 19.1096 31.1632 18.4382 32.0469 18.4382H32.7114V19.9647H31.9055C31.0642 19.9647 30.7673 20.1838 30.6895 21.2792L30.6471 21.7527C30.4915 23.9718 28.9574 25.3428 26.7799 25.3428C26.0164 25.3428 25.4226 25.2863 24.9348 24.9895C24.4045 25.2085 24.0722 25.5407 24.0722 25.9152C24.0722 26.3251 24.3692 26.5442 24.9348 26.5442H29.1766C31.0642 26.5442 32.2943 27.6608 32.2943 29.2721C32.2943 31.0601 30.9228 32.0001 29.1907 32.0001H24.4187C22.7502 32.0001 22.0645 31.0743 22.0645 30.2333C22.0857 29.3569 22.5735 28.6926 23.436 28.3181ZM28.9716 30.417C29.8906 30.417 30.4421 30.1202 30.4421 29.2792C30.4421 28.417 29.8906 28.1626 28.9716 28.1626H24.4187C24.044 28.3958 23.7117 28.8481 23.7117 29.3993C23.7117 30.1626 24.1854 30.417 25.1822 30.417H28.9716ZM26.7941 19.6114C25.5215 19.6114 24.6944 20.516 24.6944 21.7668C24.6944 23.0601 25.5215 23.9082 26.7941 23.9082C28.0666 23.9082 28.8938 23.0672 28.8938 21.7668C28.8938 20.5089 28.0525 19.6114 26.7941 19.6114Z" fill="black"/>
<path d="M37.7875 18.1555C40.4174 18.1555 42.1283 20.1979 42.1283 22.9612C42.1283 23.1944 42.1071 23.47 42.0717 23.7668H35.2212C35.299 25.9435 36.4372 26.8834 37.9077 26.8834C39.3216 26.8834 40.0498 25.9788 40.4598 25.0177L42.1495 25.6255C41.4637 27.4488 39.9155 28.4311 37.8723 28.4311C35.1646 28.4311 33.376 26.5866 33.376 23.3287C33.3689 20.1979 35.2353 18.1555 37.7875 18.1555ZM40.1983 22.2969C40.1558 20.6078 39.1166 19.6255 37.7875 19.6255C36.4937 19.6255 35.4121 20.6432 35.2565 22.2969H40.1983Z" fill="black"/>
<path d="M84.7095 8.12725C84.7095 5.24385 86.6254 3.28625 89.2412 3.28625C91.3409 3.28625 92.7124 4.50887 93.2073 5.9859L91.3833 6.62195C91.051 5.67495 90.3794 4.93997 89.2129 4.93997C87.8626 4.93997 86.7314 5.97884 86.7314 8.12018C86.7314 10.2757 87.8484 11.3145 89.2341 11.3145C90.549 11.3145 91.2277 10.4594 91.5529 9.39933L93.4193 10.0566C92.7831 11.788 91.3338 12.9753 89.2553 12.9753C86.5405 12.9824 84.7095 11.0672 84.7095 8.12725Z" fill="black"/>
<path d="M94.6143 8.14846C94.6143 5.3216 96.4807 3.29333 99.054 3.29333C101.649 3.29333 103.508 5.3216 103.508 8.14846C103.508 10.9965 101.606 12.9895 99.054 12.9895C96.5089 12.9824 94.6143 10.9188 94.6143 8.14846ZM101.444 8.16259C101.444 6.02832 100.475 4.94705 99.054 4.94705C97.6472 4.94705 96.6645 6.02125 96.6645 8.16259C96.6645 10.2969 97.6542 11.3216 99.054 11.3216C100.475 11.3216 101.444 10.3039 101.444 8.16259Z" fill="black"/>
<path d="M117.591 8.16258C117.591 5.20145 119.401 3.28625 121.826 3.28625C124.399 3.28625 125.99 5.23679 125.99 7.90816C125.99 8.14845 125.968 8.38166 125.954 8.63608H119.542C119.634 10.6431 120.73 11.3569 121.917 11.3569C123.303 11.3569 123.925 10.3675 124.222 9.66082L126.011 10.3181C125.389 11.9082 124.017 12.9824 121.903 12.9824C119.288 12.9824 117.591 11.2156 117.591 8.16258ZM123.968 7.15905C123.932 5.62548 123.02 4.81982 121.833 4.81982C120.928 4.81982 120.115 5.37813 119.768 6.38873C119.641 6.76329 119.917 7.15198 120.313 7.15198H123.968V7.15905Z" fill="black"/>
<path d="M127.58 8.16258C127.58 5.20145 129.39 3.28625 131.815 3.28625C134.388 3.28625 135.979 5.23679 135.979 7.90816C135.979 8.14845 135.958 8.38166 135.944 8.63608H129.531C129.623 10.6431 130.719 11.3569 131.907 11.3569C133.292 11.3569 133.915 10.3675 134.211 9.66082L136 10.3181C135.378 11.9082 134.006 12.9824 131.893 12.9824C129.277 12.9824 127.58 11.2156 127.58 8.16258ZM133.957 7.15905C133.922 5.62548 133.01 4.81982 131.822 4.81982C130.917 4.81982 130.104 5.37813 129.758 6.38873C129.63 6.76329 129.906 7.15198 130.302 7.15198H133.957V7.15905Z" fill="black"/>
<path d="M116.113 1.56891C116.962 1.56891 117.669 1.81626 118.128 2.29682V0.332156C117.52 0.120141 116.898 0 116.141 0C114.805 0 113.773 0.339223 113.094 0.961131C112.805 1.22968 112.338 1.01767 112.338 0.621908V0.332156C111.772 0.120141 111.101 0 110.344 0C107.799 0 106.392 1.23675 106.392 3.31449V4.35336H104.257V5.87279H106.392V12.7279H108.223V5.87279H112.182V12.7279H114.014V5.87279H116.601V4.35336H114.416C114.19 4.35336 114.006 4.16961 114.006 3.94346V3.30742C114.162 2.19788 114.742 1.56891 116.113 1.56891ZM108.223 3.94346V3.30742C108.379 2.19081 108.952 1.56184 110.323 1.56184C111.058 1.56184 111.666 1.74558 112.119 2.11308C112.218 2.19788 112.267 2.32509 112.246 2.4523C112.197 2.71378 112.19 2.99647 112.19 3.30035V4.33922H108.633C108.407 4.35336 108.223 4.16961 108.223 3.94346Z" fill="black"/>
<path d="M56.1191 26.0353H49.7705V23.9929H56.1262C59.7812 23.9929 62.7576 21.2721 62.7576 17.9293V14.5583C62.7576 10.0918 66.6459 6.45227 71.4321 6.45227H76.9606V8.49467H71.4321C67.7771 8.49467 64.8007 11.2155 64.8007 14.5583V17.9293C64.7936 22.3957 60.9053 26.0353 56.1191 26.0353Z" fill="black"/>
</svg>
