<svg viewBox="0 0 40 34" fill="none" xmlns="http://www.w3.org/2000/svg">
<path d="M10.8657 0H0V25.5903C0 25.8948 0.19597 26.1655 0.48499 26.2599L0.496268 26.2642C0.665451 26.3191 0.848732 26.3079 1.00945 26.2331L1.08841 26.1965C1.27733 26.1091 1.49585 26.1105 1.68477 26.1993L1.69887 26.2064C1.89061 26.2966 2.11337 26.2966 2.3037 26.2049L2.31639 26.1979C2.50108 26.1091 2.71679 26.1063 2.9043 26.188L3.02273 26.2402C3.18063 26.3093 3.35968 26.3191 3.52463 26.2656C3.81506 26.1711 4.01103 25.9004 4.01103 25.5959V16.1668H10.8277C16.391 16.1668 19.7224 12.8706 19.7224 8.06436C19.7224 3.29624 16.391 0 10.8657 0ZM10.1467 12.7874H3.96592V3.49926H10.1467C13.818 3.49926 15.7114 5.26721 15.7114 8.02912C15.7114 10.791 13.818 12.7874 10.1467 12.7874Z" fill="black"/>
<path d="M33.3854 23.3923H25.2097C24.1114 23.3923 23.5446 22.9327 23.5446 22.1375C23.5446 21.7639 23.7195 21.3875 24.0296 21.0759C24.5315 20.5726 25.2886 20.4415 25.9597 20.6727C26.7464 20.9434 27.6614 21.0012 28.7681 21.0012C32.9695 21.0012 35.9217 18.3492 36.2249 14.0717L36.301 13.1807C36.4518 11.0617 37.02 10.6627 38.6484 10.6627H39.5338C39.7227 10.6627 39.8919 10.5429 39.9525 10.3624L39.9765 10.2905C40.0131 10.182 40.0075 10.0621 39.9567 9.95779L39.8947 9.82809C39.8369 9.70684 39.8369 9.56726 39.8961 9.44602L39.9426 9.35015C40.0004 9.2289 40.0004 9.08791 39.9426 8.96667L39.9046 8.88912C39.8425 8.75942 39.8468 8.60715 39.9159 8.48168L39.9314 8.45207C39.9962 8.33646 40.0047 8.19689 39.9553 8.07282C39.8877 7.90505 39.7255 7.79367 39.5437 7.79367H38.998C37.6277 7.79367 36.3856 8.73827 36.1516 10.0875C36.0754 10.526 35.7032 10.8079 35.2648 10.8037C34.932 10.7995 34.6374 10.5936 34.4851 10.299C33.5786 8.55217 31.6823 7.14655 28.3889 7.14655C24.1875 7.14655 21.1972 10.1326 21.1972 13.7292C21.1972 15.9624 21.9163 17.3609 23.2415 18.4211L23.2711 18.4508C23.6264 18.8131 23.6137 19.3982 23.2415 19.745C21.4242 20.5021 20.4401 21.6751 20.4401 23.0751C20.4401 24.1733 21.1972 24.9671 22.2941 25.4211C22.7861 25.7143 22.7974 26.4235 22.3138 26.7322L22.2941 26.7449C20.6291 27.4639 19.6816 28.6933 19.6816 30.3584C19.6816 31.9868 21.0069 33.7068 24.2242 33.7068H33.4221C36.7536 33.7068 39.4027 31.991 39.4027 28.5467C39.4041 25.4479 37.0186 23.3923 33.3854 23.3923ZM28.7681 9.94369C31.1903 9.94369 32.8187 11.6849 32.8187 14.107C32.8187 16.6053 31.2283 18.2322 28.7681 18.2322C26.308 18.2322 24.7176 16.6038 24.7176 14.107C24.7176 11.6849 26.3065 9.94369 28.7681 9.94369ZM32.9695 30.5614H25.6651C23.735 30.5614 22.8256 30.1892 22.8256 28.7131C22.8256 28.6369 22.8284 28.558 22.8355 28.4847C22.9426 27.244 24.0465 26.3191 25.2929 26.3191H32.9695C34.7487 26.3191 35.809 26.7562 35.809 28.4212C35.8075 30.0482 34.7473 30.5614 32.9695 30.5614Z" fill="black"/>
</svg>
